<?xml version="1.0" encoding="iso-8859-1"?>
<!-- Generator: Adobe Illustrator 19.0.0, SVG Export Plug-In . SVG Version: 6.00 Build 0)  -->
<svg version="1.1" id="Layer_1" xmlns="http://www.w3.org/2000/svg" xmlns:xlink="http://www.w3.org/1999/xlink" x="0px" y="0px"
	 viewBox="0 0 508 508" style="enable-background:new 0 0 508 508;" xml:space="preserve">
<circle style="fill:#84DBFF;" cx="254" cy="254" r="254"/>
<g>
	<rect x="376.9" y="153.1" style="fill:#FFFFFF;" width="30.4" height="13.9"/>
	<rect x="376.9" y="190.7" style="fill:#FFFFFF;" width="30.4" height="13.9"/>
	<rect x="376.9" y="228.3" style="fill:#FFFFFF;" width="30.4" height="13.9"/>
	<rect x="376.9" y="265.8" style="fill:#FFFFFF;" width="30.4" height="13.9"/>
	<rect x="376.9" y="303.4" style="fill:#FFFFFF;" width="30.4" height="13.9"/>
	<rect x="376.9" y="341" style="fill:#FFFFFF;" width="30.4" height="13.9"/>
	<rect x="100.8" y="153.1" style="fill:#FFFFFF;" width="30.4" height="13.9"/>
	<rect x="100.8" y="190.7" style="fill:#FFFFFF;" width="30.4" height="13.9"/>
	<rect x="100.8" y="228.3" style="fill:#FFFFFF;" width="30.4" height="13.9"/>
	<rect x="100.8" y="265.8" style="fill:#FFFFFF;" width="30.4" height="13.9"/>
	<rect x="100.8" y="303.4" style="fill:#FFFFFF;" width="30.4" height="13.9"/>
	<rect x="100.8" y="341" style="fill:#FFFFFF;" width="30.4" height="13.9"/>
	<rect x="341" y="376.9" style="fill:#FFFFFF;" width="13.9" height="30.4"/>
	<rect x="303.4" y="376.9" style="fill:#FFFFFF;" width="13.9" height="30.4"/>
	<rect x="265.8" y="376.9" style="fill:#FFFFFF;" width="13.9" height="30.4"/>
	<rect x="228.2" y="376.9" style="fill:#FFFFFF;" width="13.9" height="30.4"/>
	<rect x="190.7" y="376.9" style="fill:#FFFFFF;" width="13.9" height="30.4"/>
	<rect x="153.1" y="376.9" style="fill:#FFFFFF;" width="13.9" height="30.4"/>
	<rect x="341" y="100.8" style="fill:#FFFFFF;" width="13.9" height="30.4"/>
	<rect x="303.4" y="100.8" style="fill:#FFFFFF;" width="13.9" height="30.4"/>
	<rect x="265.8" y="100.8" style="fill:#FFFFFF;" width="13.9" height="30.4"/>
	<rect x="228.2" y="100.8" style="fill:#FFFFFF;" width="13.9" height="30.4"/>
	<rect x="190.6" y="100.8" style="fill:#FFFFFF;" width="13.9" height="30.4"/>
	<rect x="153.1" y="100.8" style="fill:#FFFFFF;" width="13.9" height="30.4"/>
</g>
<path style="fill:#324A5E;" d="M379,382.9H129c-2.2,0-3.9-1.7-3.9-3.9V129c0-2.2,1.7-3.9,3.9-3.9h250c2.2,0,3.9,1.7,3.9,3.9v250
	C382.9,381.1,381.1,382.9,379,382.9z"/>
<polygon style="fill:#E6E9EE;" points="146.2,149.7 146.2,358.3 329.5,358.3 361.8,326 361.8,149.7 "/>
<g>
	<path style="fill:#324A5E;" d="M206.8,269.5c5.5,0,10-2.2,13.5-6.5l7.2,7.4c-5.7,6.4-12.4,9.6-20.1,9.6c-7.7,0-14.1-2.4-19.1-7.3
		s-7.5-11-7.5-18.5c0-7.4,2.5-13.7,7.6-18.6c5.1-5,11.3-7.5,18.7-7.5c8.2,0,15.1,3.1,20.7,9.4l-7,7.9c-3.5-4.4-7.9-6.6-13.2-6.6
		c-4.2,0-7.8,1.4-10.8,4.1c-3,2.8-4.5,6.5-4.5,11.1c0,4.7,1.4,8.4,4.2,11.2C199.4,268.1,202.8,269.5,206.8,269.5z"/>
	<path style="fill:#324A5E;" d="M270.9,233.7c3.5,3,5.3,7.6,5.3,13.8s-1.8,10.7-5.4,13.6s-9.1,4.3-16.6,4.3h-6.7v14h-11.2v-50.2H254
		C261.8,229.2,267.4,230.7,270.9,233.7z M262.7,253.4c1.3-1.5,2-3.7,2-6.6c0-2.9-0.9-5-2.6-6.2s-4.5-1.8-8.2-1.8h-6.4v16.9h7.5
		C258.8,255.7,261.3,254.9,262.7,253.4z"/>
	<path style="fill:#324A5E;" d="M298.2,266.4c1.9,2.3,4.4,3.5,7.5,3.5c3.2,0,5.7-1.2,7.5-3.5s2.8-5.5,2.8-9.5v-27.7h11.2v28.1
		c0,7.3-2,12.9-6,16.8s-9.2,5.9-15.4,5.9c-6.3,0-11.4-2-15.5-5.9c-4-3.9-6.1-9.5-6.1-16.7v-28.1h11.2V257
		C295.4,260.9,296.4,264.1,298.2,266.4z"/>
</g>
<g>
</g>
<g>
</g>
<g>
</g>
<g>
</g>
<g>
</g>
<g>
</g>
<g>
</g>
<g>
</g>
<g>
</g>
<g>
</g>
<g>
</g>
<g>
</g>
<g>
</g>
<g>
</g>
<g>
</g>
</svg>
